<svg width="25" height="24" viewBox="0 0 25 24" fill="none" xmlns="http://www.w3.org/2000/svg">
<path fill-rule="evenodd" clip-rule="evenodd" d="M12.119 5.79457C8.74338 5.79457 6.02058 8.51737 6.02058 11.893C6.02058 15.2686 8.74338 17.9914 12.119 17.9914C15.4946 17.9914 18.2174 15.2686 18.2174 11.893C18.2174 8.51737 15.4946 5.79457 12.119 5.79457ZM12.119 15.8578C9.93759 15.8578 8.15424 14.0797 8.15424 11.893C8.15424 9.70627 9.93228 7.92822 12.119 7.92822C14.3057 7.92822 16.0838 9.70627 16.0838 11.893C16.0838 14.0797 14.3004 15.8578 12.119 15.8578H12.119ZM19.8893 5.54511C19.8893 6.33594 19.2524 6.96755 18.4669 6.96755C17.6761 6.96755 17.0445 6.33064 17.0445 5.54511C17.0445 4.75959 17.6814 4.12268 18.4669 4.12268C19.2524 4.12268 19.8893 4.75959 19.8893 5.54511ZM23.9284 6.98878C23.8382 5.08335 23.403 3.39554 22.0071 2.00494C20.6165 0.614354 18.9287 0.179131 17.0232 0.0835946C15.0594 -0.0278649 9.1733 -0.0278649 7.20948 0.0835946C5.30936 0.173824 3.62155 0.609047 2.22565 1.99964C0.82975 3.39023 0.399834 5.07804 0.304298 6.98347C0.192838 8.94728 0.192838 14.8334 0.304298 16.7972C0.394527 18.7026 0.82975 20.3905 2.22565 21.7811C3.62155 23.1716 5.30406 23.6069 7.20948 23.7024C9.1733 23.8139 15.0594 23.8139 17.0232 23.7024C18.9287 23.6122 20.6165 23.1769 22.0071 21.7811C23.3977 20.3905 23.8329 18.7026 23.9284 16.7972C24.0399 14.8334 24.0399 8.95259 23.9284 6.98878L23.9284 6.98878ZM21.3914 18.9043C20.9774 19.9446 20.1759 20.7461 19.1303 21.1654C17.5646 21.7864 13.8493 21.6431 12.119 21.6431C10.3887 21.6431 6.66811 21.7811 5.10767 21.1654C4.06738 20.7514 3.26594 19.9499 2.84664 18.9043C2.22565 17.3386 2.36895 13.6233 2.36895 11.893C2.36895 10.1627 2.23096 6.4421 2.84664 4.88166C3.26063 3.84137 4.06208 3.03993 5.10767 2.62063C6.67342 1.99964 10.3887 2.14294 12.119 2.14294C13.8493 2.14294 17.5699 2.00494 19.1303 2.62063C20.1706 3.03462 20.9721 3.83607 21.3914 4.88166C22.0124 6.4474 21.8691 10.1627 21.8691 11.893C21.8691 13.6233 22.0124 17.3439 21.3914 18.9043Z" fill="#FAFAFA"/>
</svg>
