<svg width="25" height="24" viewBox="0 0 25 24" fill="none" xmlns="http://www.w3.org/2000/svg">
<path fill-rule="evenodd" clip-rule="evenodd" d="M22.6636 0H2.27711C1.34297 0 0.583984 0.769602 0.583984 1.71435V22.0637C0.583984 23.0084 1.34297 23.778 2.27711 23.778H22.6636C23.5977 23.778 24.362 23.0084 24.362 22.0637V1.71435C24.362 0.769602 23.5977 0 22.6636 0ZM7.77047 20.3812H4.24623V9.03353H7.77578V20.3812H7.77047ZM6.00835 7.48371C4.87783 7.48371 3.96492 6.5655 3.96492 5.44029C3.96492 4.31508 4.87783 3.39686 6.00835 3.39686C7.13356 3.39686 8.05178 4.31508 8.05178 5.44029C8.05178 6.57081 7.13887 7.48371 6.00835 7.48371H6.00835ZM20.9811 20.3812H17.4568V14.8613C17.4568 13.545 17.4303 11.8519 15.6257 11.8519C13.7893 11.8519 13.508 13.2849 13.508 14.7657V20.3812H9.98374V9.03353H13.3647V10.5834H13.4125C13.8848 9.69168 15.0366 8.75223 16.7509 8.75223C20.3176 8.75223 20.9811 11.1035 20.9811 14.1607V20.3812Z" fill="#FAFAFA"/>
</svg>
