<svg width="29" height="23" viewBox="0 0 29 23" fill="none" xmlns="http://www.w3.org/2000/svg">
<path d="M25.28 5.50048C25.2972 5.74187 25.2972 5.98331 25.2972 6.2247C25.2972 13.5874 19.6933 22.071 9.45094 22.071C6.29547 22.071 3.36419 21.157 0.898438 19.5708C1.34677 19.6225 1.7778 19.6397 2.24338 19.6397C4.84703 19.6397 7.24383 18.7603 9.1578 17.2602C6.7093 17.2085 4.65739 15.6049 3.95041 13.3978C4.2953 13.4495 4.64014 13.484 5.00227 13.484C5.5023 13.484 6.00238 13.415 6.46791 13.2943C3.91597 12.777 2.00194 10.5354 2.00194 7.82828V7.75934C2.74336 8.17317 3.60558 8.43181 4.51939 8.46626C3.01925 7.46615 2.03644 5.75912 2.03644 3.82789C2.03644 2.79334 2.31228 1.84497 2.79511 1.01731C5.53675 4.39692 9.65783 6.60398 14.2789 6.84542C14.1927 6.43159 14.1409 6.00056 14.1409 5.56948C14.1409 2.5002 16.624 0 19.7104 0C21.314 0 22.7624 0.672473 23.7798 1.75878C25.0385 1.51739 26.2455 1.05181 27.3146 0.413834C26.9007 1.70708 26.0213 2.79339 24.8661 3.48306C25.9869 3.36242 27.0732 3.05198 28.0732 2.62094C27.3147 3.72445 26.3663 4.70726 25.28 5.50048V5.50048Z" fill="#FAFAFA"/>
</svg>
