<svg width="30" height="21" viewBox="0 0 30 21" fill="none" xmlns="http://www.w3.org/2000/svg">
<path fill-rule="evenodd" clip-rule="evenodd" d="M29.3047 3.18896C28.9714 1.93372 27.9891 0.945124 26.742 0.609631C24.4815 0 15.4171 0 15.4171 0C15.4171 0 6.35281 0 4.09225 0.609631C2.84513 0.945177 1.8629 1.93372 1.52953 3.18896C0.923828 5.46417 0.923828 10.2112 0.923828 10.2112C0.923828 10.2112 0.923828 14.9582 1.52953 17.2334C1.8629 18.4886 2.84513 19.4361 4.09225 19.7715C6.35281 20.3812 15.4171 20.3812 15.4171 20.3812C15.4171 20.3812 24.4814 20.3812 26.742 19.7715C27.9891 19.4361 28.9714 18.4886 29.3047 17.2334C29.9104 14.9582 29.9104 10.2112 29.9104 10.2112C29.9104 10.2112 29.9104 5.46417 29.3047 3.18896V3.18896ZM12.4526 14.5211V5.90125L20.0286 10.2113L12.4526 14.5211L12.4526 14.5211Z" fill="#FAFAFA"/>
</svg>
