<svg width="20" height="20" viewBox="0 0 20 20" fill="none" xmlns="http://www.w3.org/2000/svg">
<path fill-rule="evenodd" clip-rule="evenodd" d="M8.18745 0.935059H2.1442C1.47944 0.935059 0.935547 1.47895 0.935547 2.14371V8.18696C0.935547 8.85171 1.47936 9.39561 2.1442 9.39561H8.18745C8.8522 9.39561 9.39609 8.85171 9.39609 8.18696V2.14371C9.39609 1.47895 8.8522 0.935059 8.18744 0.935059L8.18745 0.935059ZM8.18745 5.76966H2.1442V4.56101H8.18745V5.76966ZM17.8566 0.935059H11.8134C11.1486 0.935059 10.6047 1.47895 10.6047 2.14371V17.8562C10.6047 18.5209 11.1486 19.0648 11.8134 19.0648H17.8566C18.5214 19.0648 19.0653 18.5209 19.0653 17.8562V2.14371C19.0653 1.47895 18.5214 0.935059 17.8566 0.935059ZM17.8566 11.8129H11.8134V10.6043H17.8566V11.8129ZM17.8566 8.18696H11.8134V6.97831H17.8566V8.18696ZM8.18745 10.6043H2.1442C1.47944 10.6043 0.935547 11.1481 0.935547 11.8129V17.8562C0.935547 18.5209 1.47936 19.0648 2.1442 19.0648H8.18745C8.8522 19.0648 9.39609 18.5209 9.39609 17.8562V11.8129C9.39609 11.1481 8.8522 10.6043 8.18744 10.6043H8.18745ZM8.18745 15.4389H5.77015V17.8562H4.5615V15.4389H2.1442V14.2302H4.5615V11.8129H5.77015V14.2302H8.18745V15.4389Z" fill="#FAFAFA"/>
</svg>
