<svg width="20" height="21" viewBox="0 0 20 21" fill="none" xmlns="http://www.w3.org/2000/svg">
<path d="M18.4775 14.6117V17.2481C18.4796 17.7429 18.2728 18.2157 17.9082 18.5503C17.5435 18.8849 17.0547 19.0502 16.5618 19.0056C13.8576 18.7118 11.26 17.7878 8.9778 16.3077C6.85448 14.9585 5.05428 13.1583 3.70503 11.035C2.21985 8.7424 1.2956 6.1322 1.00714 3.41585C0.962737 2.9245 1.1269 2.4371 1.45951 2.07273C1.79213 1.70835 2.26258 1.50055 2.75594 1.50009L5.39232 1.50009C6.27451 1.4914 7.02643 2.13806 7.1499 3.01161C7.26118 3.85531 7.46754 4.68372 7.76506 5.48102C8.00649 6.12331 7.85207 6.84737 7.3696 7.33527L6.25353 8.45134C7.50455 10.6514 9.3262 12.4731 11.5263 13.7241L12.6424 12.608C13.1303 12.1256 13.8543 11.9711 14.4966 12.2126C15.2939 12.5101 16.1223 12.7165 16.966 12.8277C17.8497 12.9524 18.4997 13.7195 18.4775 14.6117V14.6117Z" stroke="#FAFAFA" stroke-opacity="0.501961" stroke-width="2" stroke-linecap="round" stroke-linejoin="round"/>
</svg>
