<svg width="24" height="24" viewBox="0 0 24 24" fill="none" xmlns="http://www.w3.org/2000/svg">
<path fill-rule="evenodd" clip-rule="evenodd" d="M12.0001 7.48477C9.63701 7.48477 7.72305 9.39873 7.72305 11.7618C7.72305 14.1248 9.63701 16.0388 12.0001 16.0388C14.3631 16.0388 16.2771 14.1248 16.2771 11.7618C16.2771 9.39873 14.3631 7.48477 12.0001 7.48477ZM21.5592 10.6925C21.0673 6.23374 17.5281 2.69452 13.0693 2.20266V0H10.9308V2.20266C6.47202 2.69452 2.9328 6.23374 2.44094 10.6925H0.238281V12.831H2.44094C2.9328 17.2898 6.47202 20.829 10.9308 21.3209V23.5236H13.0693V21.3209C17.5281 20.829 21.0673 17.2898 21.5592 12.831H23.7618V10.6925H21.5592ZM12.0001 19.2465C7.86205 19.2465 4.51529 15.8998 4.51529 11.7618C4.51529 7.62377 7.86205 4.27701 12.0001 4.27701C16.1381 4.27701 19.4848 7.62377 19.4848 11.7618C19.4848 15.8998 16.1381 19.2465 12.0001 19.2465Z" fill="#FAFAFA" fill-opacity="0.501961"/>
</svg>
