<svg width="59" height="50" viewBox="0 0 59 50" fill="none" xmlns="http://www.w3.org/2000/svg">
<g clip-path="url(#clip0_0_74)">
<path d="M37.529 32.5059L18.8283 22.1399C18.3998 21.9024 18.2435 21.3574 18.4811 20.9288L20.2087 17.8121C20.4463 17.3835 20.9913 17.2272 21.4198 17.4648L40.1205 27.8307C40.549 28.0683 40.7053 28.6133 40.4677 29.0418L38.7401 32.1586C38.5025 32.5871 37.9575 32.7434 37.529 32.5059Z" fill="#FAFAFA"/>
<path d="M35.6341 41.8961L47.0798 21.2475C47.7331 20.069 49.2318 19.6392 50.4104 20.2925C51.5889 20.9457 52.0186 22.4445 51.3654 23.623L39.9197 44.2716C39.2664 45.4502 37.7676 45.8799 36.5891 45.2266C35.4106 44.5734 34.9808 43.0746 35.6341 41.8961Z" fill="#FAFAFA"/>
<path d="M52.7995 29.7655L51.6308 29.1177C51.2022 28.8801 50.6572 29.0364 50.4196 29.4649L44.3729 40.3736C44.1353 40.8022 44.2916 41.3472 44.7201 41.5847L45.8889 42.2326C46.9603 42.8265 48.3228 42.4358 48.9167 41.3644L53.6677 32.7933C54.2616 31.7219 53.8709 30.3594 52.7995 29.7655Z" fill="#FAFAFA"/>
<path d="M11.8689 28.7228L23.3146 8.07421C23.9679 6.89568 23.5381 5.39693 22.3596 4.74366C21.181 4.09039 19.6823 4.52015 19.029 5.69868L7.58332 26.3473C6.93005 27.5258 7.35981 29.0246 8.53834 29.6778C9.71687 30.3311 11.2156 29.9013 11.8689 28.7228Z" fill="#FAFAFA"/>
<path d="M14.2301 8.38558L13.0613 7.73771C11.9899 7.14383 10.6274 7.53452 10.0335 8.60591L5.28245 17.177C4.68856 18.2484 5.07925 19.6109 6.15064 20.2048L7.31943 20.8527C7.74799 21.0902 8.29299 20.9339 8.53054 20.5054L14.5773 9.59669C14.8149 9.16813 14.6586 8.62314 14.2301 8.38558Z" fill="#FAFAFA"/>
</g>
<defs>
<clipPath id="clip0_0_74">
<rect width="49.8905" height="28.5086" fill="white" transform="translate(14.5684 0.424515) rotate(29)"/>
</clipPath>
</defs>
</svg>
